<svg xmlns="http://www.w3.org/2000/svg" version="1.1" xmlns:xlink="http://www.w3.org/1999/xlink" xmlns:svgjs="http://svgjs.dev/svgjs" width="1000" height="625" viewBox="0 0 1000 625"><g transform="matrix(1,0,0,1,0,0)"><svg viewBox="0 0 512 320" data-background-color="#ffffff" preserveAspectRatio="xMidYMid meet" height="625" width="1000" xmlns="http://www.w3.org/2000/svg" xmlns:xlink="http://www.w3.org/1999/xlink"><g id="tight-bounds" transform="matrix(1,0,0,1,0,0)"><svg viewBox="0 0 512 320" height="320" width="512"><rect width="512" height="320" fill="url(#201aaa6c-69fd-4544-892b-2f2921a2f4df)" mask="url(#31f27543-23db-4102-abbe-032a76fa3657)" data-fill-palette-color="tertiary"></rect><g><svg></svg></g><g><svg viewBox="0 0 512 320" height="320" width="512"><g><path xmlns="http://www.w3.org/2000/svg" d="M96 160c0-88.366 71.634-160 160-160 88.366 0 160 71.634 160 160 0 88.366-71.634 160-160 160-88.366 0-160-71.634-160-160z" fill="url(#201aaa6c-69fd-4544-892b-2f2921a2f4df)" fill-rule="nonzero" stroke="none" stroke-width="1" stroke-linecap="butt" stroke-linejoin="miter" stroke-miterlimit="10" stroke-dasharray="" stroke-dashoffset="0" font-family="none" font-weight="none" font-size="none" text-anchor="none" style="mix-blend-mode: normal" data-fill-palette-color="tertiary"></path></g><g transform="matrix(1,0,0,1,153.6,118.39389009061327)"><svg viewBox="0 0 204.8 83.21221981877348" height="83.21221981877348" width="204.8"><g><svg viewBox="0 0 204.8 83.21221981877348" height="83.21221981877348" width="204.8"><g><svg viewBox="0 0 204.8 83.21221981877348" height="83.21221981877348" width="204.8"><g transform="matrix(1,0,0,1,0,51.42849015669588)"><svg viewBox="0 0 204.8 31.7837296620776" height="31.7837296620776" width="204.8"><g id="textblocktransform"><svg viewBox="0 0 204.8 31.7837296620776" height="31.7837296620776" width="204.8" id="textblock"><g><svg viewBox="0 0 204.8 31.7837296620776" height="31.7837296620776" width="204.8"><g transform="matrix(1,0,0,1,0,0)"><svg width="204.8" viewBox="2.640000104904175 -31.25 292.5799865722656 45.40999984741211" height="31.7837296620776" data-palette-color="#ffffff"><path d="M2.64-15.21L2.64-15.21Q2.64-17.24 3.2-19.2 3.76-21.17 4.86-22.95 5.96-24.73 7.58-26.26 9.2-27.78 11.33-28.89 13.45-30 16.05-30.63 18.65-31.25 21.7-31.25L21.7-31.25Q25.76-31.25 28.69-30.2 31.62-29.15 33.84-27.32L33.84-27.32 33.84-30.4 39.6-30.4 39.6-21.61 33.84-21.61Q32.69-23 31.41-24.06 30.13-25.12 28.65-25.85 27.17-26.59 25.43-26.97 23.68-27.34 21.63-27.34L21.63-27.34Q18.6-27.34 16.26-26.39 13.92-25.44 12.3-23.79 10.69-22.14 9.86-19.92 9.03-17.7 9.03-15.19L9.03-15.19Q9.03-12.57 9.86-10.38 10.69-8.18 12.33-6.58 13.96-4.98 16.38-4.08 18.8-3.17 22-3.17L22-3.17Q24.85-3.17 27.12-3.85 29.39-4.52 31.02-5.73 32.64-6.93 33.58-8.62 34.52-10.3 34.74-12.35L34.74-12.35 24.49-12.35 24.49-15.41 40.33-15.41 40.33 0 34.77 0 34.77-3.88Q33.72-2.86 32.41-2.01 31.1-1.17 29.5-0.56 27.91 0.05 25.98 0.39 24.05 0.73 21.78 0.73L21.78 0.73Q17.21 0.73 13.65-0.5 10.08-1.73 7.64-3.88 5.2-6.03 3.92-8.94 2.64-11.84 2.64-15.21ZM35.3-18.97L35.3-19.9 41.36-19.9 41.36-29.15 42.33-29.15 42.33-18.97 35.3-18.97ZM10.79-15.21L10.79-15.21Q10.79-17.43 11.54-19.34 12.28-21.24 13.67-22.64 15.06-24.05 17.08-24.84 19.09-25.63 21.63-25.63L21.63-25.63Q23.39-25.63 24.82-25.38 26.25-25.12 27.38-24.63 28.52-24.15 29.42-23.43 30.32-22.71 31.05-21.78L31.05-21.78Q29.93-22.58 28.86-23.13 27.78-23.68 26.66-24.04 25.54-24.39 24.3-24.55 23.07-24.71 21.63-24.71L21.63-24.71Q19.31-24.71 17.48-23.96 15.65-23.22 14.38-21.94 13.11-20.65 12.44-18.92 11.77-17.19 11.77-15.21L11.77-15.21Q11.77-13.5 12.26-11.99 12.74-10.47 13.79-9.18 14.84-7.89 16.48-6.82 18.12-5.76 20.41-4.96L20.41-4.96Q18.14-5.32 16.36-6.18 14.58-7.03 13.34-8.34 12.11-9.64 11.45-11.36 10.79-13.09 10.79-15.21ZM36.23 1.71L42.09 1.71 42.09-14.18 43.07-14.18 43.07 2.64 36.23 2.64 36.23 1.71ZM25.85-9.72L25.85-10.64 33.37-10.64Q33.33-10.5 33.24-10.22 33.15-9.94 33.06-9.72L33.06-9.72 25.85-9.72ZM8.89-1.17L8.89-1.17Q10.28-0.22 11.68 0.46 13.09 1.15 14.64 1.59 16.19 2.03 17.96 2.23 19.73 2.44 21.83 2.44L21.83 2.44Q23.63 2.44 25.21 2.27 26.78 2.1 28.19 1.73 29.59 1.37 30.85 0.81 32.1 0.24 33.3-0.54L33.3-0.54 33.3 0.59Q30.79 2.12 27.97 2.75 25.15 3.37 21.78 3.37L21.78 3.37Q17.29 3.37 14.12 2.26 10.96 1.15 8.89-1.17ZM49.75-11.4L49.75-11.4Q49.75-14.06 50.9-16.42 52.05-18.77 54.11-20.52 56.17-22.27 59.06-23.28 61.94-24.29 65.38-24.29L65.38-24.29Q68.99-24.29 71.84-23.33 74.68-22.36 76.65-20.65 78.61-18.95 79.65-16.6 80.69-14.26 80.69-11.5L80.69-11.5Q80.69-8.84 79.55-6.59 78.42-4.35 76.33-2.72 74.24-1.1 71.32-0.18 68.41 0.73 64.82 0.73L64.82 0.73Q61.42 0.73 58.65-0.28 55.88-1.29 53.9-2.98 51.93-4.66 50.84-6.85 49.75-9.03 49.75-11.4ZM53.59-1.12L53.59-1.12Q55.95 0.59 58.82 1.51 61.69 2.44 65.31 2.44L65.31 2.44Q68.67 2.44 71.77 1.53 74.88 0.61 77.24-1.17 79.61-2.95 81.03-5.55 82.44-8.15 82.44-11.5L82.44-11.5Q82.44-13.13 81.99-14.81 81.54-16.48 80.72-18.02 79.9-19.56 78.73-20.89 77.56-22.22 76.12-23.14L76.12-23.14Q77.76-22.41 79.11-21.22 80.47-20.02 81.42-18.49 82.37-16.97 82.9-15.19 83.42-13.4 83.42-11.5L83.42-11.5Q83.42-9.11 82.74-7.07 82.05-5.03 80.84-3.38 79.64-1.73 77.96-0.46 76.29 0.81 74.29 1.65 72.29 2.49 70.03 2.93 67.77 3.37 65.43 3.37L65.43 3.37Q63.47 3.37 61.69 3.06 59.91 2.76 58.38 2.19 56.86 1.61 55.64 0.78 54.42-0.05 53.59-1.12ZM55.17-11.5L55.17-11.5Q55.17-9.62 55.89-8.07 56.61-6.52 57.93-5.41 59.25-4.3 61.09-3.69 62.94-3.08 65.18-3.08L65.18-3.08Q67.45-3.08 69.31-3.7 71.16-4.32 72.51-5.43 73.85-6.54 74.58-8.09 75.31-9.64 75.31-11.5L75.31-11.5Q75.31-13.33 74.58-14.95 73.85-16.58 72.53-17.81 71.21-19.04 69.37-19.76 67.53-20.48 65.31-20.48L65.31-20.48Q62.99-20.48 61.12-19.79 59.25-19.09 57.93-17.88 56.61-16.67 55.89-15.04 55.17-13.4 55.17-11.5ZM56.88-11.4L56.88-11.4Q56.88-12.94 57.49-14.29 58.1-15.65 59.21-16.64 60.32-17.63 61.87-18.2 63.43-18.77 65.31-18.77L65.31-18.77Q66.5-18.77 67.62-18.52 68.75-18.26 69.7-17.77 70.65-17.29 71.38-16.59 72.12-15.89 72.56-15.01L72.56-15.01Q70.94-16.48 69.2-17.16 67.45-17.85 65.26-17.85L65.26-17.85Q63.67-17.85 62.33-17.33 60.98-16.82 59.98-15.94 58.98-15.06 58.42-13.89 57.86-12.72 57.86-11.4L57.86-11.4Q57.86-10.3 58.13-9.35 58.4-8.4 59.04-7.58 59.69-6.76 60.76-6.1 61.84-5.44 63.45-4.93L63.45-4.93Q61.98-5.03 60.78-5.55 59.57-6.08 58.7-6.93 57.83-7.79 57.36-8.94 56.88-10.08 56.88-11.4ZM105.97 0L105.97-3.91 112.35-3.91 112.35-26.49 105.61-26.49 105.61-30.4 124.87-30.4Q127.68-30.4 129.94-30.3 132.19-30.2 134.03-29.86L134.03-29.86Q136.17-29.44 137.69-28.67 139.2-27.91 140.14-26.81 141.08-25.71 141.51-24.32 141.94-22.92 141.94-21.26L141.94-21.26Q141.94-19.9 141.46-18.58 140.98-17.26 140.06-16.1 139.13-14.94 137.72-14.01 136.32-13.09 134.47-12.5L134.47-12.5Q132.49-11.91 130.08-11.76 127.68-11.6 124.87-11.6L124.87-11.6 117.89-11.6 117.89-3.91 126.58-3.91 126.58 0 105.97 0ZM119.6-5.37L119.6-9.89 123.5-9.89Q125.65-9.89 127.21-9.91 128.78-9.94 130.01-10.02 131.24-10.11 132.23-10.27 133.22-10.42 134.22-10.67L134.22-10.67Q136.47-11.21 138.22-12.19 139.98-13.18 141.19-14.56 142.4-15.94 143.03-17.69 143.67-19.43 143.67-21.48L143.67-21.48Q143.67-24 142.7-25.82 141.74-27.64 139.69-29.1L139.69-29.1Q140.93-28.56 141.89-27.72 142.84-26.88 143.47-25.85 144.11-24.83 144.43-23.71 144.74-22.58 144.74-21.48L144.74-21.48Q144.74-19.31 144.04-17.41 143.33-15.5 141.97-13.96 140.62-12.43 138.63-11.32 136.64-10.21 134.05-9.64L134.05-9.64Q133.27-9.47 132.29-9.34 131.32-9.2 130.05-9.12 128.78-9.03 127.17-9 125.55-8.96 123.5-8.96L123.5-8.96 120.57-8.96 120.57-5.37 119.6-5.37ZM117.89-15.5L125.92-15.5Q128-15.5 129.53-15.6 131.07-15.7 132.24-16.04L132.24-16.04Q134.34-16.63 135.16-17.9 135.98-19.17 135.98-21.07L135.98-21.07Q135.98-22.53 135.44-23.56 134.9-24.58 133.71-25.24 132.51-25.9 130.6-26.2 128.68-26.49 125.92-26.49L125.92-26.49 117.89-26.49 117.89-15.5ZM119.6-16.97L119.6-24.78 125.75-24.78Q129.48-24.78 131.45-24.37 133.42-23.95 134.03-22.92L134.03-22.92Q133.54-23.14 132.87-23.32 132.19-23.49 131.22-23.61 130.24-23.73 128.91-23.79 127.58-23.85 125.75-23.85L125.75-23.85 120.57-23.85 120.57-16.97 119.6-16.97ZM106.93-23.85L106.93-24.78 110.81-24.78 110.81-23.85 106.93-23.85ZM107.54 1.71L128.34 1.71 128.34-2.54 129.31-2.54 129.31 2.64 107.54 2.64 107.54 1.71ZM148.38-11.69L148.38-11.69Q148.38-13.96 149.33-16.21 150.28-18.46 152.15-20.25 154.02-22.05 156.78-23.17 159.54-24.29 163.12-24.29L163.12-24.29Q164.27-24.29 165.58-24.12 166.88-23.95 168.19-23.56 169.5-23.17 170.74-22.52 171.99-21.88 173.01-20.95L173.01-20.95 173.01-23.56 183.51-23.56 183.51-19.41 178.14-19.41 178.14-3.66 183.51-3.66 183.51 0 173.01 0 173.01-3.17Q172.06-2.22 170.85-1.49 169.64-0.76 168.29-0.27 166.93 0.22 165.48 0.48 164.03 0.73 162.59 0.73L162.59 0.73Q159.07 0.73 156.41-0.27 153.75-1.27 151.97-2.97 150.19-4.66 149.28-6.92 148.38-9.18 148.38-11.69ZM179.9-5.13L179.9-17.7 185.27-17.7 185.27-21.7 186.24-21.7 186.24-16.77 180.87-16.77 180.87-5.13 179.9-5.13ZM153.68-11.89L153.68-11.89Q153.68-9.86 154.4-8.23 155.12-6.59 156.36-5.44 157.61-4.3 159.32-3.66 161.03-3.03 163-3.03L163-3.03Q164.15-3.03 165.33-3.26 166.52-3.49 167.63-3.97 168.74-4.44 169.73-5.16 170.72-5.88 171.44-6.87 172.16-7.86 172.59-9.13 173.01-10.4 173.01-11.96L173.01-11.96Q173.01-13.7 172.21-15.25 171.4-16.8 170.05-17.97 168.69-19.14 166.88-19.82 165.08-20.51 163.08-20.51L163.08-20.51Q161.07-20.51 159.35-19.9 157.63-19.29 156.37-18.16 155.12-17.04 154.4-15.44 153.68-13.84 153.68-11.89ZM155.36-11.77L155.36-11.77Q155.36-13.31 155.93-14.59 156.51-15.87 157.53-16.81 158.56-17.75 159.98-18.27 161.39-18.8 163.08-18.8L163.08-18.8Q164.35-18.8 165.37-18.52 166.4-18.24 167.15-17.83 167.91-17.43 168.4-17 168.89-16.58 169.08-16.26L169.08-16.26Q167.76-16.99 166.37-17.43 164.98-17.87 163.08-17.87L163.08-17.87Q161.54-17.87 160.3-17.37 159.07-16.87 158.19-16.02 157.31-15.16 156.84-14.04 156.36-12.92 156.36-11.67L156.36-11.67Q156.36-10.5 156.63-9.47 156.9-8.45 157.5-7.58 158.1-6.71 159.06-5.99 160.02-5.27 161.39-4.74L161.39-4.74Q159.85-5 158.72-5.65 157.58-6.3 156.84-7.23 156.09-8.15 155.73-9.31 155.36-10.47 155.36-11.77ZM174.48 1.71L185.27 1.71 185.27-2.29 186.24-2.29 186.24 2.64 174.48 2.64 174.48 1.71ZM151.53-1.05L151.53-1.05Q152.53-0.24 153.8 0.4 155.07 1.05 156.51 1.5 157.95 1.95 159.5 2.2 161.05 2.44 162.61 2.44L162.61 2.44Q165.32 2.44 167.68 1.77 170.03 1.1 171.87-0.1L171.87-0.1 171.87 1.03Q170.03 2.12 167.63 2.75 165.22 3.37 162.64 3.37L162.64 3.37Q160.85 3.37 159.15 3.09 157.44 2.81 155.97 2.25 154.51 1.68 153.36 0.85 152.21 0.02 151.53-1.05ZM192.83 0L192.83-3.66 198.21-3.66 198.21-19.41 192.83-19.41 192.83-23.56 203.45-23.56 203.45-19.48Q204.21-20.46 205.27-21.34 206.34-22.22 207.68-22.88 209.02-23.54 210.61-23.91 212.19-24.29 214-24.29L214-24.29Q214.54-24.29 215.34-24.26 216.15-24.22 216.88-24.1L216.88-24.1 216.88-19.31Q216.03-19.51 215.2-19.58 214.37-19.65 213.59-19.65L213.59-19.65Q211.63-19.65 209.89-19.03 208.14-18.41 206.77-17.22 205.41-16.04 204.53-14.33 203.65-12.62 203.45-10.42L203.45-10.42 203.45-3.66 212.24-3.66 212.24 0 192.83 0ZM205.16-5.13L205.16-8.23Q205.16-10.52 205.75-12.33 206.34-14.14 207.42-15.38 208.51-16.63 210.07-17.29 211.63-17.94 213.59-17.94L213.59-17.94Q214-17.94 214.64-17.88 215.27-17.82 215.97-17.7 216.66-17.58 217.37-17.4 218.08-17.21 218.64-16.97L218.64-16.97 218.64-22.73 219.62-22.73 219.62-15.75Q218.93-16.04 218.14-16.27 217.35-16.5 216.53-16.67 215.71-16.85 214.95-16.93 214.2-17.02 213.59-17.02L213.59-17.02Q211.8-17.02 210.42-16.43 209.05-15.84 208.09-14.75 207.14-13.65 206.64-12.06 206.14-10.47 206.14-8.47L206.14-8.47 206.14-5.13 205.16-5.13ZM194.3-16.77L194.3-17.7 197.18-17.7 197.18-16.77 194.3-16.77ZM194.3 1.71L214 1.71 214-2.29 214.98-2.29 214.98 2.64 194.3 2.64 194.3 1.71ZM228.62-8.74L228.62-19.41 223.25-19.41 223.25-23.56 228.62-23.56 228.62-28.49 233.87-30.69 233.87-23.56 246.01-23.56 246.01-19.41 233.87-19.41 233.87-7.76Q233.87-5.93 235.02-5.04 236.17-4.15 238.14-4.15L238.14-4.15 245.03-4.15 245.03 0 238.14 0Q236.17 0 234.43-0.43 232.7-0.85 231.41-1.87 230.11-2.88 229.37-4.55 228.62-6.23 228.62-8.74L228.62-8.74ZM235.63-25.02L235.63-29.35 236.61-29.79 236.61-25.02 235.63-25.02ZM235.58-6.76L235.58-17.97 247.76-17.97 247.76-22.46 248.74-22.46 248.74-17.04 236.56-17.04 236.56-5.79Q235.73-6.01 235.58-6.76L235.58-6.76ZM224.72-16.77L224.72-17.7 227.65-17.7 227.65-16.77 224.72-16.77ZM228.48-2.1L228.48-2.1Q229.26-1 230.22-0.27 231.19 0.46 232.38 0.9 233.58 1.34 234.99 1.53 236.41 1.71 238.1 1.71L238.1 1.71 246.79 1.71 246.79-3.05 247.76-3.05 247.76 2.64 237.97 2.64Q236.09 2.64 234.56 2.39 233.02 2.15 231.83 1.6 230.65 1.05 229.81 0.13 228.96-0.78 228.48-2.1ZM261.04 7.86L267.24 7.86 270.98 0.9 257.36-19.9 252.13-19.9 252.13-23.56 268.81-23.56 268.81-19.9 263.63-19.9 273.71-4.17 282.16-19.9 276.23-19.9 276.23-23.56 292.49-23.56 292.49-19.9 287.53-19.9 270.39 11.52 261.04 11.52 261.04 7.86ZM262.51 13.23L271.66 13.23 288.83-18.19 294.25-18.19 294.25-22.19 295.22-22.19 295.22-17.26 289.39-17.26 272.27 14.16 262.51 14.16 262.51 13.23ZM273.91-7.5L267.07-18.19 270.56-18.19 270.56-22.19 271.54-22.19 271.54-17.26 268.81-17.26 274.45-8.47 273.91-7.5ZM277.42-17.26L277.42-18.19 279.96-18.19 279.47-17.26 277.42-17.26ZM253.6-17.26L253.6-18.19 257.14-18.19 257.75-17.26 253.6-17.26Z" opacity="1" transform="matrix(1,0,0,1,0,0)" fill="#ffffff" class="wordmark-text-0" data-fill-palette-color="quaternary" id="text-0"></path></svg></g></svg></g></svg></g></svg></g><g transform="matrix(1,0,0,1,80.44061525680159,0)"><svg viewBox="0 0 43.91876948639683 43.92511439299125" height="43.92511439299125" width="43.91876948639683"><g><svg xmlns="http://www.w3.org/2000/svg" xmlns:xlink="http://www.w3.org/1999/xlink" version="1.1" x="0" y="0" viewBox="7.488999843597412 4.540999889373779 89.98799896240234 90.0009994506836" enable-background="new 0 0 107.353 100" xml:space="preserve" height="43.92511439299125" width="43.91876948639683" class="icon-icon-0" data-fill-palette-color="quaternary" id="icon-0"><g fill="#ffffff" data-fill-palette-color="quaternary"><path d="M77.854 49.777H26.95c-1.117 0-2.164 0.533-2.825 1.436-0.658 0.902-0.848 2.062-0.508 3.126 4.009 12.582 15.575 21.035 28.786 21.035 13.208 0 24.775-8.453 28.785-21.035 0.34-1.063 0.15-2.224-0.508-3.126C80.02 50.31 78.971 49.777 77.854 49.777zM52.402 68.374c-8.455 0-16.034-4.506-20.109-11.598h40.218C68.435 63.868 60.855 68.374 52.402 68.374z" fill="#ffffff" data-fill-palette-color="quaternary"></path><path d="M31.82 38.617c1.932 0 3.501-1.566 3.501-3.5 0-1.722 1.4-3.125 3.123-3.125 1.722 0 3.125 1.402 3.125 3.125 0 1.934 1.566 3.5 3.501 3.5 1.931 0 3.497-1.566 3.497-3.5 0-5.582-4.541-10.125-10.122-10.125-5.583 0-10.124 4.543-10.124 10.125C28.321 37.051 29.887 38.617 31.82 38.617z" fill="#ffffff" data-fill-palette-color="quaternary"></path><path d="M58.666 38.674c1.932 0 3.5-1.566 3.5-3.5 0-1.722 1.402-3.125 3.125-3.125 1.722 0 3.124 1.402 3.124 3.125 0 1.934 1.566 3.5 3.5 3.5 1.932 0 3.499-1.566 3.499-3.5 0-5.582-4.542-10.125-10.123-10.125-5.584 0-10.124 4.543-10.124 10.125C55.167 37.107 56.732 38.674 58.666 38.674z" fill="#ffffff" data-fill-palette-color="quaternary"></path><path d="M7.489 94.542h89.988V4.541H7.489V94.542zM16.486 13.54h71.992v72.002H16.486V13.54z" fill="#ffffff" data-fill-palette-color="quaternary"></path></g></svg></g></svg></g><g></g></svg></g></svg></g></svg></g></svg></g><defs></defs><mask id="31f27543-23db-4102-abbe-032a76fa3657"><g id="SvgjsG1270"><svg viewBox="0 0 512 320" height="320" width="512"><g><svg></svg></g><g><svg viewBox="0 0 512 320" height="320" width="512"><g><path xmlns="http://www.w3.org/2000/svg" d="M96 160c0-88.366 71.634-160 160-160 88.366 0 160 71.634 160 160 0 88.366-71.634 160-160 160-88.366 0-160-71.634-160-160z" fill="white" fill-rule="nonzero" stroke="none" stroke-width="1" stroke-linecap="butt" stroke-linejoin="miter" stroke-miterlimit="10" stroke-dasharray="" stroke-dashoffset="0" font-family="none" font-weight="none" font-size="none" text-anchor="none" style="mix-blend-mode: normal"></path></g><g transform="matrix(1,0,0,1,153.6,118.39389009061327)"><svg viewBox="0 0 204.8 83.21221981877348" height="83.21221981877348" width="204.8"><g><svg viewBox="0 0 204.8 83.21221981877348" height="83.21221981877348" width="204.8"><g><svg viewBox="0 0 204.8 83.21221981877348" height="83.21221981877348" width="204.8"><g transform="matrix(1,0,0,1,0,51.42849015669588)"><svg viewBox="0 0 204.8 31.7837296620776" height="31.7837296620776" width="204.8"><g id="SvgjsG1269"><svg viewBox="0 0 204.8 31.7837296620776" height="31.7837296620776" width="204.8" id="SvgjsSvg1268"><g><svg viewBox="0 0 204.8 31.7837296620776" height="31.7837296620776" width="204.8"><g transform="matrix(1,0,0,1,0,0)"><svg width="204.8" viewBox="2.640000104904175 -31.25 292.5799865722656 45.40999984741211" height="31.7837296620776" data-palette-color="#ffffff"></svg></g></svg></g></svg></g></svg></g><g transform="matrix(1,0,0,1,80.44061525680159,0)"><svg viewBox="0 0 43.91876948639683 43.92511439299125" height="43.92511439299125" width="43.91876948639683"><g><svg xmlns="http://www.w3.org/2000/svg" xmlns:xlink="http://www.w3.org/1999/xlink" version="1.1" x="0" y="0" viewBox="7.488999843597412 4.540999889373779 89.98799896240234 90.0009994506836" enable-background="new 0 0 107.353 100" xml:space="preserve" height="43.92511439299125" width="43.91876948639683" class="icon-icon-0" data-fill-palette-color="quaternary" id="SvgjsSvg1266"></svg></g></svg></g><g></g></svg></g></svg></g></svg></g></svg></g><defs><mask></mask></defs></svg></g></mask><linearGradient x1="0" x2="1" y1="0.5" y2="0.5" id="201aaa6c-69fd-4544-892b-2f2921a2f4df"><stop stop-color="#ffa62e" offset="0"></stop><stop stop-color="#f71b3d" offset="1"></stop></linearGradient></svg><rect width="512" height="320" fill="none" stroke="none" visibility="hidden"></rect></g></svg></g></svg>